<?xml version="1.0" encoding="UTF-8"?>
<svg id="Layer_2" xmlns="http://www.w3.org/2000/svg" version="1.1" viewBox="0 0 837.3 286.9">
  <!-- Generator: Adobe Illustrator 29.7.1, SVG Export Plug-In . SVG Version: 2.1.1 Build 8)  -->
  <defs>
    <style>
      .st0 {
        fill: #eaf3d0;
      }

      .st1 {
        fill: #c6ab76;
      }

      .st2 {
        fill: #4a743e;
      }

      .st3 {
        fill: #c1cc60;
      }

      .st4 {
        fill: #23394a;
      }

      .st5 {
        fill: #c4ae70;
      }

      .st6 {
        fill: #a4d039;
      }

      .st7 {
        fill: #3aceff;
      }

      .st8 {
        fill: #c1af75;
      }

      .st9 {
        fill: #474747;
      }

      .st10 {
        fill: #839f48;
      }

      .st11 {
        fill: #2e6e3c;
      }
    </style>
  </defs>
  <path class="st3" d="M233.5,56.9c-6,6.6-10.2,15.4-16,22.2-30.3,34.9-80.3,27.2-103.8,69.1l-8.7,24.4-3.4-8.5c-.9-26.3,0-44.1,17.7-64.7,29.1-33.7,72.7-28.5,110.8-44.2,2-.2,3.1-.4,3.4,1.7h0Z"/>
  <path class="st10" d="M233.5,56.9c.3,2.2-5.4,19.3-6.7,23-6.7,19.4-15.7,38.6-28.8,54.5-2.8,3.4-2.9,3.3-5.5,7.1-7.2,10.5-35.6,23.1-48.2,25.6-9.2,1.8-18.6,1.4-27.4,3.9,13.8-17.8,23.2-28.8,42.4-41.6,7.6-5.1,17.2-8.3,23.6-14.6-9.9,1.6-21.1,6.6-29.9,11.6-17.4,9.9-29.2,23.8-41.1,39.4-.5.7-2,1.5-3.4,3.4-.3.4.3,1.3,0,1.7-.1.2-1,.5-1.7,1.7-.2.4.2,1.3,0,1.7l-1.7,1.7c-.5.6-1,1.2-1.7,1.7-1.8-5.7-1.5-7.9-1.7-13.6l3.4,8.5,8.7-24.4c23.5-41.9,73.5-34.2,103.8-69.1,5.8-6.7,10.1-15.5,16-22.2h0Z"/>
  <path class="st2" d="M104.9,182.8c5.4-.6,8.4-7.5,11.8-11.9,8.8-2.5,18.2-2,27.4-3.9,12.6-2.5,41-15.1,48.2-25.6,2.6-3.8,2.7-3.7,5.5-7.1,13.1-15.9,22.1-35.1,28.8-54.5,1.3-3.7,7-20.8,6.7-23s-1.4-1.9-3.4-1.7c2.1-4.1,6.8-.9,6.8,2.5-1.7,22.3-1.1,45.5-8,66.9-6.9,21.6-20.4,42.1-41.2,52.1-23.9,11.4-47.6,7.6-73.5,7.7-5.4,0-6.1,3.3-9.2-1.6Z"/>
  <path class="st5" d="M74.5,87.5h38.9v6.8h-35.5c5.4,33.2,15.7,65.8,22.8,98.8-.2,2.1,3.6,5,5.1,5h117.5c.9,0,2.3,12.3-5.8,10.3-35.1-2.9-75.6,3.6-110.1,0-6.5-.7-11.9-4.6-16-9.4-11.5-38.3-18.4-78.3-29.1-117.1-5.8-11.9-20.7-3.5-24.8-6.5-3.4-2.5-1.4-9.1,4-10,16.1-2.8,32.4,4,33,22.1h0Z"/>
  <path class="st0" d="M111.7,165.8c12-15.7,23.7-29.5,41.1-39.4,8.8-5,20-10,29.9-11.6-6.4,6.3-15.9,9.5-23.6,14.6-19.1,12.7-28.6,23.8-42.4,41.6-3.4,4.4-6.4,11.3-11.8,11.9-.2-.4.2-1.1,0-1.7-.3-.8-.8-1.5-1.7-1.7-.2-.5.2-1.2,0-1.7.7-.5,1.2-1.1,1.7-1.7.3-.4,1-.5,1.7-1.7.2-.4-.2-1.3,0-1.7l1.7-1.7c.3-.4-.3-1.3,0-1.7l3.4-3.4h0Z"/>
  <ellipse class="st8" cx="195.9" cy="222.6" rx="10.9" ry="10.9"/>
  <ellipse class="st1" cx="111.4" cy="222.6" rx="10.7" ry="10.8"/>
  <path class="st3" d="M104.9,181.1c-.8-.3-1.4-.9-1.7-1.7.9.2,1.4.9,1.7,1.7Z"/>
  <path class="st3" d="M108.3,169.2c1.4-1.9,2.9-2.7,3.4-3.4l-3.4,3.4Z"/>
  <path class="st3" d="M104.9,176l1.7-1.7c-.7,1.2-1.3,1.3-1.7,1.7Z"/>
  <path class="st3" d="M106.6,172.6c.7-1.2,1.6-1.5,1.7-1.7l-1.7,1.7Z"/>
  <path class="st3" d="M233.5,56.9c-6,6.6-10.2,15.4-16,22.2-30.3,34.9-80.3,27.2-103.8,69.1l-8.7,24.4-3.4-8.5c-.9-26.3,0-44.1,17.7-64.7,29.1-33.7,72.7-28.5,110.8-44.2,2-.2,3.1-.4,3.4,1.7h0Z"/>
  <path class="st10" d="M233.5,56.9c.3,2.2-5.4,19.3-6.7,23-6.7,19.4-15.7,38.6-28.8,54.5-2.8,3.4-2.9,3.3-5.5,7.1-7.2,10.5-35.6,23.1-48.2,25.6-9.2,1.8-18.6,1.4-27.4,3.9,13.8-17.8,23.2-28.8,42.4-41.6,7.6-5.1,17.2-8.3,23.6-14.6-9.9,1.6-21.1,6.6-29.9,11.6-17.4,9.9-29.2,23.8-41.1,39.4-.5.7-2,1.5-3.4,3.4-.3.4.3,1.3,0,1.7-.1.2-1,.5-1.7,1.7-.2.4.2,1.3,0,1.7l-1.7,1.7c-.5.6-1,1.2-1.7,1.7-1.8-5.7-1.5-7.9-1.7-13.6l3.4,8.5,8.7-24.4c23.5-41.9,73.5-34.2,103.8-69.1,5.8-6.7,10.1-15.5,16-22.2h0Z"/>
  <path class="st2" d="M104.9,182.8c5.4-.6,8.4-7.5,11.8-11.9,8.8-2.5,18.2-2,27.4-3.9,12.6-2.5,41-15.1,48.2-25.6,2.6-3.8,2.7-3.7,5.5-7.1,13.1-15.9,22.1-35.1,28.8-54.5,1.3-3.7,7-20.8,6.7-23s-1.4-1.9-3.4-1.7c2.1-4.1,6.8-.9,6.8,2.5-1.7,22.3-1.1,45.5-8,66.9-6.9,21.6-20.4,42.1-41.2,52.1-23.9,11.4-47.6,7.6-73.5,7.7-5.4,0-6.1,3.3-9.2-1.6Z"/>
  <path class="st5" d="M74.5,87.5h38.9v6.8h-35.5c5.4,33.2,15.7,65.8,22.8,98.8-.2,2.1,3.6,5,5.1,5h117.5c.9,0,2.3,12.3-5.8,10.3-35.1-2.9-75.6,3.6-110.1,0-6.5-.7-11.9-4.6-16-9.4-11.5-38.3-18.4-78.3-29.1-117.1-5.8-11.9-20.7-3.5-24.8-6.5-3.4-2.5-1.4-9.1,4-10,16.1-2.8,32.4,4,33,22.1h0Z"/>
  <path class="st0" d="M111.7,165.8c12-15.7,23.7-29.5,41.1-39.4,8.8-5,20-10,29.9-11.6-6.4,6.3-15.9,9.5-23.6,14.6-19.1,12.7-28.6,23.8-42.4,41.6-3.4,4.4-6.4,11.3-11.8,11.9-.2-.4.2-1.1,0-1.7-.3-.8-.8-1.5-1.7-1.7-.2-.5.2-1.2,0-1.7.7-.5,1.2-1.1,1.7-1.7.3-.4,1-.5,1.7-1.7.2-.4-.2-1.3,0-1.7l1.7-1.7c.3-.4-.3-1.3,0-1.7l3.4-3.4h0Z"/>
  <ellipse class="st8" cx="195.9" cy="222.6" rx="10.9" ry="10.9"/>
  <ellipse class="st1" cx="111.4" cy="222.6" rx="10.7" ry="10.8"/>
  <path class="st3" d="M104.9,181.1c-.8-.3-1.4-.9-1.7-1.7.9.2,1.4.9,1.7,1.7Z"/>
  <path class="st3" d="M108.3,169.2c1.4-1.9,2.9-2.7,3.4-3.4l-3.4,3.4Z"/>
  <path class="st3" d="M104.9,176l1.7-1.7c-.7,1.2-1.3,1.3-1.7,1.7Z"/>
  <path class="st3" d="M106.6,172.6c.7-1.2,1.6-1.5,1.7-1.7l-1.7,1.7Z"/>
  <path class="st3" d="M233.5,56.9c-6,6.6-10.2,15.4-16,22.2-30.3,34.9-80.3,27.2-103.8,69.1l-8.7,24.4-3.4-8.5c-.9-26.3,0-44.1,17.7-64.7,29.1-33.7,72.7-28.5,110.8-44.2,2-.2,3.1-.4,3.4,1.7h0Z"/>
  <path class="st10" d="M233.5,56.9c.3,2.2-5.4,19.3-6.7,23-6.7,19.4-15.7,38.6-28.8,54.5-2.8,3.4-2.9,3.3-5.5,7.1-7.2,10.5-35.6,23.1-48.2,25.6-9.2,1.8-18.6,1.4-27.4,3.9,13.8-17.8,23.2-28.8,42.4-41.6,7.6-5.1,17.2-8.3,23.6-14.6-9.9,1.6-21.1,6.6-29.9,11.6-17.4,9.9-29.2,23.8-41.1,39.4-.5.7-2,1.5-3.4,3.4-.3.4.3,1.3,0,1.7-.1.2-1,.5-1.7,1.7-.2.4.2,1.3,0,1.7l-1.7,1.7c-.5.6-1,1.2-1.7,1.7-1.8-5.7-1.5-7.9-1.7-13.6l3.4,8.5,8.7-24.4c23.5-41.9,73.5-34.2,103.8-69.1,5.8-6.7,10.1-15.5,16-22.2h0Z"/>
  <path class="st2" d="M104.9,182.8c5.4-.6,8.4-7.5,11.8-11.9,8.8-2.5,18.2-2,27.4-3.9,12.6-2.5,41-15.1,48.2-25.6,2.6-3.8,2.7-3.7,5.5-7.1,13.1-15.9,22.1-35.1,28.8-54.5,1.3-3.7,7-20.8,6.7-23s-1.4-1.9-3.4-1.7c2.1-4.1,6.8-.9,6.8,2.5-1.7,22.3-1.1,45.5-8,66.9-6.9,21.6-20.4,42.1-41.2,52.1-23.9,11.4-47.6,7.6-73.5,7.7-5.4,0-6.1,3.3-9.2-1.6Z"/>
  <path class="st5" d="M74.5,87.5h38.9v6.8h-35.5c5.4,33.2,15.7,65.8,22.8,98.8-.2,2.1,3.6,5,5.1,5h117.5c.9,0,2.3,12.3-5.8,10.3-35.1-2.9-75.6,3.6-110.1,0-6.5-.7-11.9-4.6-16-9.4-11.5-38.3-18.4-78.3-29.1-117.1-5.8-11.9-20.7-3.5-24.8-6.5-3.4-2.5-1.4-9.1,4-10,16.1-2.8,32.4,4,33,22.1h0Z"/>
  <path class="st0" d="M111.7,165.8c12-15.7,23.7-29.5,41.1-39.4,8.8-5,20-10,29.9-11.6-6.4,6.3-15.9,9.5-23.6,14.6-19.1,12.7-28.6,23.8-42.4,41.6-3.4,4.4-6.4,11.3-11.8,11.9-.2-.4.2-1.1,0-1.7-.3-.8-.8-1.5-1.7-1.7-.2-.5.2-1.2,0-1.7.7-.5,1.2-1.1,1.7-1.7.3-.4,1-.5,1.7-1.7.2-.4-.2-1.3,0-1.7l1.7-1.7c.3-.4-.3-1.3,0-1.7l3.4-3.4h0Z"/>
  <ellipse class="st8" cx="195.9" cy="222.6" rx="10.9" ry="10.9"/>
  <ellipse class="st1" cx="111.4" cy="222.6" rx="10.7" ry="10.8"/>
  <path class="st3" d="M104.9,181.1c-.8-.3-1.4-.9-1.7-1.7.9.2,1.4.9,1.7,1.7Z"/>
  <path class="st3" d="M108.3,169.2c1.4-1.9,2.9-2.7,3.4-3.4l-3.4,3.4Z"/>
  <path class="st3" d="M104.9,176l1.7-1.7c-.7,1.2-1.3,1.3-1.7,1.7Z"/>
  <path class="st3" d="M106.6,172.6c.7-1.2,1.6-1.5,1.7-1.7l-1.7,1.7Z"/>
  <path class="st3" d="M233.5,56.9c-6,6.6-10.2,15.4-16,22.2-30.3,34.9-80.3,27.2-103.8,69.1l-8.7,24.4-3.4-8.5c-.9-26.3,0-44.1,17.7-64.7,29.1-33.7,72.7-28.5,110.8-44.2,2-.2,3.1-.4,3.4,1.7h0Z"/>
  <path class="st10" d="M233.5,56.9c.3,2.2-5.4,19.3-6.7,23-6.7,19.4-15.7,38.6-28.8,54.5-2.8,3.4-2.9,3.3-5.5,7.1-7.2,10.5-35.6,23.1-48.2,25.6-9.2,1.8-18.6,1.4-27.4,3.9,13.8-17.8,23.2-28.8,42.4-41.6,7.6-5.1,17.2-8.3,23.6-14.6-9.9,1.6-21.1,6.6-29.9,11.6-17.4,9.9-29.2,23.8-41.1,39.4-.5.7-2,1.5-3.4,3.4-.3.4.3,1.3,0,1.7-.1.2-1,.5-1.7,1.7-.2.4.2,1.3,0,1.7l-1.7,1.7c-.5.6-1,1.2-1.7,1.7-1.8-5.7-1.5-7.9-1.7-13.6l3.4,8.5,8.7-24.4c23.5-41.9,73.5-34.2,103.8-69.1,5.8-6.7,10.1-15.5,16-22.2h0Z"/>
  <path class="st2" d="M104.9,182.8c5.4-.6,8.4-7.5,11.8-11.9,8.8-2.5,18.2-2,27.4-3.9,12.6-2.5,41-15.1,48.2-25.6,2.6-3.8,2.7-3.7,5.5-7.1,13.1-15.9,22.1-35.1,28.8-54.5,1.3-3.7,7-20.8,6.7-23-.3-2.1-1.4-1.9-3.4-1.7,2.1-4.1,6.8-.9,6.8,2.5-1.7,22.3-1.1,45.5-8,66.9-6.9,21.6-20.4,42.1-41.2,52.1-23.9,11.4-47.6,7.6-73.5,7.7-5.4,0-6.1,3.3-9.2-1.6Z"/>
  <path class="st5" d="M74.5,87.5h38.9v6.8h-35.5c5.4,33.2,15.7,65.8,22.8,98.8-.2,2.1,3.6,5,5.1,5h117.5c.9,0,2.3,12.3-5.8,10.3-35.1-2.9-75.6,3.6-110.1,0-6.5-.7-11.9-4.6-16-9.4-11.5-38.3-18.4-78.3-29.1-117.1-5.8-11.9-20.7-3.5-24.8-6.5-3.4-2.5-1.4-9.1,4-10,16.1-2.8,32.4,4,33,22.1h0Z"/>
  <path class="st0" d="M111.7,165.8c12-15.7,23.7-29.5,41.1-39.4,8.8-5,20-10,29.9-11.6-6.4,6.3-15.9,9.5-23.6,14.6-19.1,12.7-28.6,23.8-42.4,41.6-3.4,4.4-6.4,11.3-11.8,11.9-.2-.4.2-1.1,0-1.7-.3-.8-.8-1.5-1.7-1.7-.2-.5.2-1.2,0-1.7.7-.5,1.2-1.1,1.7-1.7.3-.4,1-.5,1.7-1.7.2-.4-.2-1.3,0-1.7l1.7-1.7c.3-.4-.3-1.3,0-1.7l3.4-3.4h0Z"/>
  <ellipse class="st8" cx="195.9" cy="222.6" rx="10.9" ry="10.9"/>
  <ellipse class="st1" cx="111.4" cy="222.6" rx="10.7" ry="10.8"/>
  <path class="st3" d="M104.9,181.1c-.8-.3-1.4-.9-1.7-1.7.9.2,1.4.9,1.7,1.7Z"/>
  <path class="st3" d="M108.3,169.2c1.4-1.9,2.9-2.7,3.4-3.4l-3.4,3.4Z"/>
  <path class="st3" d="M104.9,176l1.7-1.7c-.7,1.2-1.3,1.3-1.7,1.7Z"/>
  <path class="st3" d="M106.6,172.6c.7-1.2,1.6-1.5,1.7-1.7l-1.7,1.7Z"/>
  <path class="st3" d="M239.9,56.3c-6,6.6-10.2,15.5-16,22.1-30.3,34.9-80.3,27.2-103.8,69.1l-8.7,24.4-3.4-8.5c-.9-26.3,0-44.1,17.7-64.7,29.1-33.7,72.7-28.5,110.8-44.2,2-.2,3.1-.4,3.4,1.7h0Z"/>
  <path class="st10" d="M239.9,56.3c.3,2.2-5.4,19.3-6.7,23-6.7,19.4-15.7,38.5-28.8,54.5-2.8,3.4-2.9,3.3-5.5,7.1-7.2,10.5-35.6,23.1-48.2,25.6-9.2,1.8-18.6,1.4-27.4,3.9,13.8-17.8,23.2-28.8,42.4-41.6,7.6-5.1,17.2-8.3,23.6-14.6-9.9,1.6-21.1,6.6-29.9,11.6-17.4,9.9-29.2,23.8-41.1,39.4-.5.7-2,1.5-3.4,3.4-.3.4.3,1.3,0,1.7-.1.2-1,.5-1.7,1.7-.2.4.2,1.3,0,1.7l-1.7,1.7c-.5.6-1,1.2-1.7,1.7-1.8-5.7-1.5-7.9-1.7-13.6l3.4,8.5,8.7-24.4c23.5-41.9,73.5-34.2,103.8-69.1,5.8-6.7,10.1-15.5,16-22.2h0Z"/>
  <path class="st2" d="M111.5,182.4c5.4-.6,8.4-7.5,11.8-11.9,8.8-2.5,18.2-2,27.4-3.9,12.6-2.5,41-15.1,48.2-25.6,2.6-3.8,2.7-3.7,5.5-7.1,13.1-15.9,22.1-35.1,28.8-54.5,1.3-3.7,7-20.8,6.7-23s-1.4-1.9-3.4-1.7c2.1-4.1,6.8-.9,6.8,2.5-1.7,22.3-1.1,45.5-8,66.9-6.9,21.6-20.4,42.1-41.2,52.1-23.9,11.4-47.6,7.6-73.5,7.7-5.4,0-6.1,3.3-9.2-1.6Z"/>
  <path class="st5" d="M80.9,86.9h37.1c1,0,1.8.8,1.8,1.8v3.1c0,1-.8,1.8-1.8,1.8h-31.5c-1.1,0-2,1-1.8,2.2,5.5,32.5,15.5,64.3,22.5,96.6,2.5,4,3.6,5,5.1,5h117.5c.9,0,2.3,12.3-5.8,10.3-35.1-2.9-75.6,3.6-110.1,0-12.5-1.1-11.7-4.5-15.8-9.1s-.3-.4-.4-.7c-13.4-57-18.3-77.9-28.9-116.5s0-.3-.1-.4c-5.9-11.6-20.6-3.3-24.7-6.3-3.4-2.5-1.4-9.1,4-10,16.1-2.8,32.4,4,33,22.1h0Z"/>
  <path class="st0" d="M118.1,165.2c12-15.7,23.7-29.5,41.1-39.4,8.8-5,20-10,29.9-11.6-6.4,6.3-15.9,9.5-23.6,14.6-19.1,12.7-28.6,23.8-42.4,41.6-3.4,4.4-6.4,11.3-11.8,11.9-.2-.4.2-1.1,0-1.7-.3-.8-.8-1.5-1.7-1.7-.2-.5.2-1.2,0-1.7.7-.5,1.2-1.1,1.7-1.7.3-.4,1-.5,1.7-1.7.2-.4-.2-1.3,0-1.7l1.7-1.7c.3-.4-.3-1.3,0-1.7l3.4-3.4h0Z"/>
  <path class="st6" d="M833,75c-1.4,1.6-2.5,3.7-3.9,5.4-7.3,8.4-19.4,6.6-25.1,16.7l-2.1,5.9-.8-2.1c-.2-6.4,0-10.7,4.3-15.6,7-8.1,17.6-6.9,26.8-10.7.5,0,.8-.1.8.4h0Z"/>
  <path class="st6" d="M833,75c0,.5-1.3,4.7-1.6,5.6-1.6,4.7-3.8,9.3-6.9,13.2-.7.8-.7.8-1.3,1.7-1.8,2.5-8.6,5.6-11.7,6.2-2.2.4-4.5.3-6.6.9,3.3-4.3,5.6-7,10.2-10,1.8-1.2,4.2-2,5.7-3.5-2.4.4-5.1,1.6-7.2,2.8-4.2,2.4-7,5.7-9.9,9.5-.1.2-.5.4-.8.8,0,0,0,.3,0,.4,0,0-.2.1-.4.4,0,.1,0,.3,0,.4l-.4.4c-.1.1-.2.3-.4.4-.4-1.4-.4-1.9-.4-3.3l.8,2.1,2.1-5.9c5.7-10.1,17.8-8.3,25.1-16.7,1.4-1.6,2.4-3.8,3.9-5.4h0Z"/>
  <path class="st6" d="M802,105.5c1.3-.1,2-1.8,2.9-2.9,2.1-.6,4.4-.5,6.6-.9,3-.6,9.9-3.6,11.7-6.2.6-.9.7-.9,1.3-1.7,3.2-3.9,5.3-8.5,6.9-13.2.3-.9,1.7-5,1.6-5.6s-.3-.4-.8-.4c.5-1,1.6-.2,1.6.6-.4,5.4-.3,11-1.9,16.2-1.7,5.2-4.9,10.2-10,12.6-5.8,2.8-11.5,1.8-17.8,1.9-1.3,0-1.5.8-2.2-.4Z"/>
  <path class="st0" d="M803.6,101.4c2.9-3.8,5.7-7.1,9.9-9.5,2.1-1.2,4.8-2.4,7.2-2.8-1.5,1.5-3.9,2.3-5.7,3.5-4.6,3.1-6.9,5.7-10.2,10-.8,1.1-1.5,2.7-2.9,2.9,0,0,0-.3,0-.4,0-.2-.2-.4-.4-.4,0-.1,0-.3,0-.4.2-.1.3-.3.4-.4,0,0,.2-.1.4-.4,0-.1,0-.3,0-.4l.4-.4c0,0,0-.3,0-.4l.8-.8h0Z"/>
  <path class="st6" d="M768.2,82.2c1.3,1.4,2.3,3.3,3.5,4.7,6.7,7.4,17.8,5.8,23,14.6l1.9,5.2.7-1.8c.2-5.6,0-9.3-3.9-13.7-6.4-7.1-16.1-6-24.5-9.4-.4,0-.7,0-.7.4h0Z"/>
  <path class="st6" d="M768.2,82.2c0,.5,1.2,4.1,1.5,4.9,1.5,4.1,3.5,8.2,6.4,11.5.6.7.6.7,1.2,1.5,1.6,2.2,7.9,4.9,10.7,5.4,2,.4,4.1.3,6.1.8-3.1-3.8-5.1-6.1-9.4-8.8-1.7-1.1-3.8-1.8-5.2-3.1,2.2.3,4.7,1.4,6.6,2.5,3.9,2.1,6.5,5,9.1,8.4.1.1.4.3.7.7,0,0,0,.3,0,.4,0,0,.2.1.4.4,0,0,0,.3,0,.4l.4.4c.1.1.2.3.4.4.4-1.2.3-1.7.4-2.9l-.7,1.8-1.9-5.2c-5.2-8.9-16.3-7.3-23-14.6-1.3-1.4-2.2-3.3-3.5-4.7h0Z"/>
  <path class="st6" d="M796.6,108.9c-1.2-.1-1.9-1.6-2.6-2.5-2-.5-4-.4-6.1-.8-2.8-.5-9.1-3.2-10.7-5.4-.6-.8-.6-.8-1.2-1.5-2.9-3.4-4.9-7.4-6.4-11.5-.3-.8-1.5-4.4-1.5-4.9s.3-.4.7-.4c-.5-.9-1.5-.2-1.5.5.4,4.7.3,9.6,1.8,14.2,1.5,4.6,4.5,8.9,9.1,11,5.3,2.4,10.5,1.6,16.3,1.6,1.2,0,1.3.7,2-.3Z"/>
  <path class="st0" d="M795.1,105.2c-2.6-3.3-5.2-6.3-9.1-8.4-1.9-1.1-4.4-2.1-6.6-2.5,1.4,1.3,3.5,2,5.2,3.1,4.2,2.7,6.3,5,9.4,8.8.8.9,1.4,2.4,2.6,2.5,0,0,0-.2,0-.4,0-.2.2-.3.4-.4,0-.1,0-.2,0-.4-.1,0-.3-.2-.4-.4,0,0-.2-.1-.4-.4,0,0,0-.3,0-.4l-.4-.4c0,0,0-.3,0-.4l-.7-.7h0Z"/>
  <ellipse class="st8" cx="202.3" cy="222.1" rx="10.9" ry="10.9"/>
  <ellipse class="st1" cx="117.8" cy="222" rx="10.7" ry="10.8"/>
  <path class="st3" d="M111.3,180.5c-.8-.3-1.4-.9-1.7-1.7.9.2,1.4.9,1.7,1.7Z"/>
  <path class="st3" d="M114.7,168.6c1.4-1.9,2.9-2.7,3.4-3.4l-3.4,3.4Z"/>
  <path class="st3" d="M111.3,175.4l1.7-1.7c-.7,1.2-1.3,1.3-1.7,1.7Z"/>
  <path class="st3" d="M113,172c.7-1.2,1.6-1.5,1.7-1.7l-1.7,1.7Z"/>
  <path class="st4" d="M132.8.8c104.5-10.7,191.2,87.5,157.2,190.5-43.3,131.1-245.1,125.4-284.1-5.9C-20.5,96.6,42.8,10.1,132.8.8ZM236.4,54.8c-38.1,15.7-81.7,10.5-110.8,44.2-17.8,20.6-18.6,38.4-17.7,64.7.2,5.8,0,7.9,1.7,13.6.2.5-.2,1.2,0,1.7.3.8.8,1.4,1.7,1.7.2.6-.2,1.3,0,1.7,3.1,4.9,3.8,1.6,9.2,1.6,25.9,0,49.7,3.7,73.5-7.7,20.9-10,34.3-30.5,41.2-52.1,6.8-21.4,6.3-44.6,8-66.9,0-3.5-4.6-6.7-6.8-2.5h0ZM80.8,87.1c-.5-18.1-16.9-24.9-33-22.1-5.4.9-7.5,7.4-4,10,4.1,3.1,19-5.4,24.8,6.5,10.7,38.7,17.6,78.8,29.1,117.1,4.1,4.7,9.5,8.7,16.1,9.4,34.5,3.6,74.9-2.9,110.1,0,8.1,2,6.7-10.3,5.8-10.3h-117.5c-1.5,0-5.3-2.9-5.1-5-7.1-33-17.4-65.6-22.8-98.8h35.5v-6.8h-38.9ZM128.4,222.2c0-6-4.8-10.8-10.7-10.8s-10.7,4.8-10.7,10.8,4.8,10.8,10.7,10.8,10.7-4.8,10.7-10.8ZM213,222.2c0-6-4.9-10.9-10.9-10.9s-10.9,4.9-10.9,10.9,4.9,10.9,10.9,10.9,10.9-4.9,10.9-10.9h0Z"/>
  <path class="st11" d="M398,207.5h-72.6v-102h71.8v16.3h-54.4v25.9h53v15.8h-53v27.8h55.1v16.3h0ZM474.2,189.3c-3,5.9-7.4,10.6-13.4,14.2-5.9,3.5-12.6,5.2-20.4,5.2s-10.7-1-15.6-3c-4.7-1.9-8.9-4.7-12.5-8.1-3.5-3.5-6.3-7.6-8.3-12.3-1.9-4.8-3-9.8-3-15.2s1-10.6,3-15.2c2.1-4.7,4.8-8.7,8.3-12.1,3.6-3.5,7.7-6.3,12.5-8.2,4.8-1.9,10-3,15.6-3s14.5,1.8,20.4,5.4c6,3.5,10.4,8.2,13.4,14.1l-13.9,7.4c-1.8-3.4-4.5-6.3-8-8.5-3.5-2.3-7.4-3.4-11.7-3.4s-6,.6-8.8,1.9c-2.8,1.1-5.2,2.8-7.2,5-2.1,2.1-3.7,4.6-4.9,7.4-1.1,2.8-1.7,5.8-1.7,9.1s.6,6.4,1.7,9.3c1.3,2.8,2.9,5.2,4.9,7.4,2.1,2.1,4.5,3.7,7.2,5,2.8,1.1,5.7,1.7,8.8,1.7s8.2-1.1,11.7-3.4c3.5-2.3,6.2-5.1,8-8.5l13.9,7.4h0q0,0,0,0Z"/>
  <path class="st6" d="M474.6,170.6c0-5.2,1-10.2,3-14.9,2.1-4.8,4.8-8.9,8.3-12.4,3.6-3.5,7.8-6.3,12.6-8.2,5-2,10.2-3.1,15.9-3.1s10.9,1,15.7,3.1c4.8,1.9,9,4.7,12.5,8.2,3.6,3.5,6.4,7.6,8.3,12.4,2.1,4.7,3.1,9.6,3.1,14.9s-1,10.3-3.1,15c-1.9,4.7-4.7,8.8-8.3,12.3-3.5,3.4-7.6,6.1-12.5,8.2-4.8,1.9-10,3-15.7,3s-10.9-1-15.9-3c-4.8-2.1-9-4.8-12.6-8.2-3.5-3.5-6.3-7.6-8.3-12.3-1.9-4.8-3-9.8-3-15h0ZM491.6,170.4c0,3.2.6,6.3,1.7,9.1,1.1,2.8,2.7,5.2,4.6,7.3,2.1,2.1,4.5,3.7,7.2,5,2.8,1.3,5.8,1.9,9.1,1.9s6.3-.6,9.1-1.9c2.8-1.3,5.1-2.9,7.1-5,2.1-2.1,3.6-4.5,4.8-7.3,1.1-2.9,1.7-5.9,1.7-9.1s-.6-6.2-1.7-9c-1.1-2.9-2.7-5.4-4.8-7.4-1.9-2.1-4.3-3.7-7.1-5-2.8-1.3-5.8-1.9-9.1-1.9s-6.3.6-9.1,1.9c-2.8,1.3-5.2,2.9-7.2,5-1.9,2.1-3.5,4.6-4.6,7.4-1.1,2.8-1.7,5.8-1.7,9h0Z"/>
  <path class="st9" d="M567.7,94c9.5,12.3,18.8,24.6,28.2,36.9,9.3,12.2,18.8,24.5,28.2,36.8,9.5-12.3,18.8-24.6,28.2-36.8,9.3-12.3,18.8-24.6,28.2-36.9v113.5h-6.5v-89.2c0-1,.1-2,.1-3,0-1,.1-2.1.1-3.3-8.1,11.4-16.4,22.5-24.9,33.5-8.4,10.9-16.9,21.8-25.3,32.9-7.1-9.3-14.1-18.4-21-27.4-6.9-9.1-13.9-18.3-21-27.6l-6.5-8.4c-.3-.5-.6-1-.9-1.4-.3-.5-.6-1-.9-1.6v3.3c0,.9.2,1.9.3,3v89.1h-6.5v-113.5h.2ZM690.6,178.4c0,3.3.6,6.4,1.8,9.3,1.3,2.9,2.9,5.4,4.9,7.6,2.2,2.2,4.7,3.9,7.5,5.1,3,1.3,6.2,1.9,9.6,1.9s6.5-.6,9.4-1.9c2.9-1.3,5.4-3,7.5-5.1s3.9-4.7,5.1-7.6c1.3-2.9,1.8-6,1.8-9.3s-.6-6.4-1.8-9.3c-1.3-3-3-5.6-5.1-7.7-2.2-2.2-4.7-3.9-7.5-5.1-2.9-1.3-6-1.9-9.4-1.9s-6.6.6-9.6,1.9c-2.9,1.3-5.4,3-7.5,5.1-2.1,2.2-3.7,4.8-4.9,7.7-1.3,2.9-1.8,6-1.8,9.3ZM684.1,178.4c0-4.1.8-8,2.3-11.6,1.6-3.7,3.8-6.9,6.5-9.6,2.8-2.8,6-5,9.7-6.5,3.7-1.6,7.6-2.5,11.8-2.5s5.8.5,8.5,1.4c2.7.8,5.1,1.9,7.2,3.4,2.2,1.4,4,3,5.4,4.8,1.5,1.8,2.7,3.5,3.4,5.2,0-2.3,0-4.6.1-6.8.2-2.3.3-4.6.5-6.8h5.2v58.2h-5.8v-10.2c0-1,.1-2.1.1-3.3-.6,1.8-1.7,3.5-3.2,5.2-1.5,1.8-3.2,3.4-5.4,4.8-2.1,1.4-4.5,2.4-7.2,3.3-2.7.8-5.6,1.3-8.8,1.3s-8.2-.8-11.8-2.3c-3.7-1.6-6.9-3.8-9.7-6.5-2.7-2.7-4.8-5.8-6.5-9.4-1.5-3.7-2.3-7.7-2.3-11.9h0c0-.1,0,0,0,0ZM779.7,154.5c-3.3.1-6.4.7-9.2,1.9-2.8,1-5.2,2.5-7.2,4.3s-3.7,4.1-4.9,6.7c-1.3,2.6-1.8,5.4-1.8,8.4v31.8h-6.5v-58.1h5.8v10.2c0,1.5,0,3.1.1,4.8,2.3-5.1,5.7-9,10.2-11.8,4.6-2.9,9.3-4.4,14-4.5l-.5,6.4h0c0,0,0,0,0,0ZM796.5,111.5h6.5v38h17.7v6.4h-17.7v51.7h-6.5v-51.6h-13.4v-6.4h13.4v-38h0Z"/>
  <path class="st7" d="M551,216.2h9.3v1.2h-12.3c1.3-1.2,2.5-2.4,3.6-3.6s2.2-2.3,3.1-3.4c.9-1.1,1.6-2.2,2.2-3.3.5-1.1.8-2,.8-3s-.1-1.8-.4-2.4-.6-1.2-1.1-1.6c-.4-.4-.9-.7-1.4-.8-.5-.2-1-.3-1.4-.3-.9,0-1.6.1-2.2.5s-1,.7-1.3,1.2c-.3.4-.5,1-.7,1.5,0,.5-.2,1-.2,1.5,0,.7,0,1.3.3,1.9s.5,1,.9,1.4c0,.1-.2.2-.4.3,0,.1-.2.2-.3.4-.5-.4-.9-1-1.2-1.8-.3-.7-.4-1.5-.4-2.3s0-1.6.3-2.2c.2-.7.6-1.3,1.1-1.9s1.1-1,1.7-1.3c.7-.3,1.5-.5,2.4-.5s1.6.1,2.3.5c.7.3,1.3.7,1.7,1.3s.9,1.2,1.1,1.9c.3.7.4,1.5.4,2.3s-.2,2.1-.7,3.2c-.5,1.1-1.1,2.1-1.9,3.1-.8,1-1.6,2-2.6,3.1-1,1-1.9,2-2.8,3h0c0,0,0,0,0,0Z"/>
</svg>