<?xml version="1.0" encoding="UTF-8"?>
<svg id="Layer_2" data-name="Layer 2" xmlns="http://www.w3.org/2000/svg" viewBox="0 0 1024.6 253.7">
  <defs>
    <style>
      .cls-1 {
        fill: #a4d039;
      }

      .cls-2 {
        fill: #3aceff;
      }

      .cls-3 {
        fill: #474747;
      }

      .cls-4 {
        fill: #2e6e3c;
      }
    </style>
  </defs>
  <g id="Layer_1-2" data-name="Layer 1">
    <path class="cls-4" d="M150.2,233.3H0V23.5h148.6v33.5H36.1v53.3h109.7v32.5H36.1v57.1h114.1v33.5-.1ZM307.8,196c-6.2,12.1-15.4,21.9-27.7,29.3-12.1,7.2-26.1,10.8-42.1,10.8s-22.2-2-32.2-6.1c-9.8-4-18.4-9.6-25.8-16.6-7.2-7.2-13-15.6-17.2-25.2-4-9.8-6.1-20.2-6.1-31.2s2-21.7,6.1-31.2c4.3-9.6,10-17.9,17.2-24.9,7.4-7.2,16-12.9,25.8-16.9,10-4,20.7-6.1,32.2-6.1s30,3.7,42.1,11.2c12.3,7.2,21.6,16.9,27.7,29l-28.7,15.3c-3.8-7-9.4-12.9-16.6-17.5-7.2-4.7-15.3-7-24.2-7s-12.4,1.3-18.2,3.8c-5.7,2.3-10.7,5.7-15,10.2-4.3,4.3-7.7,9.4-10.2,15.3-2.3,5.7-3.5,12-3.5,18.8s1.2,13.2,3.5,19.1c2.6,5.7,6,10.8,10.2,15.3,4.3,4.3,9.2,7.7,15,10.2,5.7,2.3,11.8,3.5,18.2,3.5s17-2.3,24.2-7,12.8-10.5,16.6-17.5l28.7,15.3v.1Z"/>
    <path class="cls-1" d="M308.6,157.4c0-10.8,2-21,6.1-30.6,4.3-9.8,10-18.3,17.2-25.5,7.4-7.2,16.2-12.9,26.1-16.9,10.3-4.2,21.2-6.3,32.9-6.3s22.5,2.1,32.5,6.3c10,4,18.6,9.7,25.8,16.9,7.4,7.2,13.2,15.7,17.2,25.5,4.3,9.6,6.4,19.8,6.4,30.6s-2.1,21.1-6.4,30.9c-4,9.6-9.8,18-17.2,25.2-7.2,7-15.8,12.6-25.8,16.9-10,4-20.8,6.1-32.5,6.1s-22.6-2-32.8-6.1c-10-4.3-18.7-9.9-26.1-16.9-7.2-7.2-13-15.6-17.2-25.2-4-9.8-6.1-20.1-6.1-30.9h-.1ZM343.7,157.1c0,6.6,1.2,12.9,3.5,18.8,2.3,5.7,5.5,10.7,9.6,15,4.3,4.3,9.2,7.7,15,10.2,5.7,2.6,12,3.8,18.8,3.8s13.1-1.3,18.8-3.8c5.7-2.6,10.6-6,14.7-10.2,4.3-4.3,7.5-9.2,9.9-15,2.3-6,3.5-12.2,3.5-18.8s-1.2-12.8-3.5-18.5c-2.3-6-5.6-11.1-9.9-15.3-4-4.3-8.9-7.7-14.7-10.2-5.7-2.6-12-3.8-18.8-3.8s-13.1,1.3-18.8,3.8c-5.7,2.6-10.7,6-15,10.2-4,4.3-7.2,9.4-9.6,15.3-2.3,5.7-3.5,11.9-3.5,18.5Z"/>
    <path class="cls-3" d="M501.3,0c19.6,25.3,39,50.6,58.3,75.9,19.3,25.1,38.8,50.3,58.3,75.6,19.6-25.3,39-50.5,58.3-75.6,19.3-25.3,38.8-50.6,58.3-75.9v233.4h-13.4V50c.2-2.1.3-4.1.3-6.1.2-2.1.3-4.4.3-6.7-16.8,23.4-34,46.3-51.6,68.9-17.4,22.3-34.9,44.8-52.3,67.6-14.7-19.1-29.1-37.9-43.4-56.4-14.2-18.7-28.7-37.6-43.4-56.7l-13.4-17.2c-.6-1.1-1.3-2-1.9-2.9-.6-1.1-1.3-2.1-1.9-3.2v6.7c.2,1.9.4,3.9.6,6.1v183.3h-13.4V0h.3ZM755.5,173.4c0,6.8,1.3,13.2,3.8,19.1,2.6,6,6,11.2,10.2,15.6,4.5,4.5,9.7,8,15.6,10.5,6.2,2.6,12.8,3.8,19.8,3.8s13.5-1.3,19.4-3.8c6-2.6,11.2-6.1,15.6-10.5s8-9.7,10.5-15.6c2.6-6,3.8-12.3,3.8-19.1s-1.3-13.2-3.8-19.1c-2.6-6.2-6.1-11.5-10.5-15.9-4.5-4.5-9.7-8-15.6-10.5-6-2.6-12.4-3.8-19.4-3.8s-13.6,1.3-19.8,3.8c-6,2.6-11.2,6.1-15.6,10.5-4.3,4.5-7.7,9.8-10.2,15.9-2.6,6-3.8,12.3-3.8,19.1ZM742.1,173.4c0-8.5,1.6-16.5,4.8-23.9,3.4-7.7,7.9-14.2,13.4-19.8,5.7-5.7,12.4-10.2,20.1-13.4,7.7-3.4,15.8-5.1,24.5-5.1s12,1,17.5,2.9c5.5,1.7,10.5,4,15,7,4.5,2.8,8.2,6.1,11.2,9.9,3.2,3.6,5.5,7.2,7,10.8,0-4.7.1-9.4.3-14,.4-4.7.7-9.4,1-14h10.8v119.6h-12.1v-21c.2-2.1.3-4.4.3-6.7-1.3,3.6-3.5,7.2-6.7,10.8-3,3.6-6.7,6.9-11.2,9.9-4.3,2.8-9.2,5-15,6.7-5.5,1.7-11.6,2.6-18.2,2.6s-16.9-1.6-24.5-4.8c-7.7-3.4-14.3-7.9-20.1-13.4-5.5-5.5-10-12-13.4-19.4-3.2-7.7-4.8-15.8-4.8-24.5l.1-.2ZM939.8,124.3c-6.8.2-13.2,1.5-19.1,3.8-5.7,2.1-10.7,5.1-15,8.9s-7.7,8.4-10.2,13.7c-2.6,5.3-3.8,11.1-3.8,17.2v65.4h-13.4v-119.5h12.1v21c0,3,.1,6.3.3,9.9,4.7-10.4,11.7-18.5,21-24.2,9.6-6,19.2-9,29-9.2l-1,13.1.1-.1ZM974.5,36h13.4v78.1h36.7v13.1h-36.7v106.2h-13.4v-106.2h-27.7v-13.1h27.7V36Z"/>
    <path class="cls-2" d="M466.6,251.2h19.2v2.5h-25.4c2.6-2.5,5.1-5,7.5-7.4,2.5-2.5,4.6-4.8,6.5-7.1s3.4-4.6,4.5-6.7c1.1-2.2,1.7-4.2,1.7-6.1s-.3-3.7-.9-5-1.3-2.4-2.2-3.2c-.9-.8-1.8-1.4-2.9-1.7-1-.4-2-.6-2.9-.6-1.8,0-3.4.3-4.5,1s-2.1,1.5-2.8,2.4c-.7.9-1.1,2-1.4,3.1-.2,1.1-.4,2.1-.4,3,0,1.4.2,2.7.6,3.8s1,2.1,1.8,2.9c-.2.2-.5.5-.8.7-.2.2-.5.5-.7.8-1.1-.9-1.9-2.1-2.5-3.6s-.9-3.1-.9-4.7.2-3.2.7-4.6c.5-1.5,1.3-2.7,2.3-3.8s2.2-2,3.6-2.6c1.5-.7,3.1-1,5-1s3.3.3,4.7,1c1.4.6,2.6,1.5,3.6,2.6s1.8,2.4,2.3,3.9c.6,1.5.9,3.1.9,4.8s-.5,4.4-1.5,6.6c-1,2.2-2.3,4.3-3.9,6.4-1.6,2.1-3.4,4.2-5.3,6.3-2,2.1-3.9,4.1-5.8,6.2l-.1.1Z"/>
  </g>
</svg>