<?xml version="1.0" encoding="UTF-8"?>
<svg id="Layer_1" xmlns="http://www.w3.org/2000/svg" version="1.1" viewBox="0 0 393 199.5">
  <!-- Generator: Adobe Illustrator 29.7.1, SVG Export Plug-In . SVG Version: 2.1.1 Build 8)  -->
  <defs>
    <style>
      .st0 {
        fill: #333;
      }

      .st1 {
        fill: #717171;
      }

      .st2 {
        fill: #353535;
      }

      .st3 {
        fill: #fefefe;
      }

      .st4 {
        fill: #3d3d3d;
      }

      .st5 {
        fill: #343434;
      }

      .st6 {
        fill: #fdfdfd;
      }

      .st7 {
        fill: #707070;
      }
    </style>
  </defs>
  <path class="st7" d="M391.5,102.4c0,42.4-34.5,76.9-77,76.9s-77-34.4-77-76.9,34.5-76.9,77-76.9,77,34.4,77,76.9ZM386.8,102.4c0-39.8-32.4-72.1-72.3-72.1s-72.3,32.3-72.3,72.1,32.4,72.1,72.3,72.1,72.3-32.3,72.3-72.1Z"/>
  <path class="st0" d="M79,132.3c-.4,8.4-10.5,11.9-18,11.5s-14.1-.7-8.7-7.4c12.3,5.9,24,2.2,22.1-12.9-13.2,12.2-25.1,3.3-24-13.4.9-13.4,13.9-20.5,24-10.5-.6-4.7.4-3.8,4.6-3.7.2,11.5.5,25.5,0,36.3ZM62.1,99.9c-10.9,2.5-9.5,29.1,6.1,24.4,8.8-2.6,10.3-28.2-6.1-24.4Z"/>
  <path class="st5" d="M26.4,81.5v4c-5.7-1.5-19.4-2.1-19.3,6.6s22.6,9.4,21.3,23.9c-.9,9.7-11.8,11.1-19.8,10.5-10.1-.8-9.1.3-7.7-5.5,6.4,1.4,22,4.3,22-5.9,0-9.7-20.3-10.1-21.3-21.2-1.2-13,15.2-15.2,24.9-12.4Z"/>
  <path class="st2" d="M185.9,128.2h-5.5v-22.5c0-6-9-7.6-13.5-3.9s-2.9,3-3.1,6.6v19.8h-4.6v-32.2c4.6,0,4.2,0,4.6,0,.3,0,.2.2.5,4.6,4.6-6.5,15.1-7.8,19.7-.3s1.4,1.6,2,7.2v20.7Z"/>
  <path class="st2" d="M114,128.2h-5.5v-22.5c0-6-9-7.6-13.5-3.9s-2.9,3-3.1,6.6v19.8h-4.6v-32.2c4.6,0,4.2,0,4.6,0,.3,0,.2.2.5,4.6,4.6-6.5,15.1-7.8,19.7-.3s1.4,1.6,2,7.2v20.7Z"/>
  <rect class="st4" x="36.6" y="96" width="5.5" height="32.2"/>
  <rect class="st4" x="143.5" y="96" width="5.5" height="32.2"/>
  <path class="st6" d="M62.1,99.9c16.3-3.7,14.8,21.8,6.1,24.4-15.6,4.6-16.9-22-6.1-24.4Z"/>
  <path class="st7" d="M322.9,98.8c1.7,2,5,2.6,7.3,4.2,7.8,5.4,11.4,11.5,13.9,20.6l-5.5.9c-5.4-29-47-29.7-54-1-1.3,5.4,1.8,6.2-5.9,5.6.6-12.9,8.6-25.3,21.2-29.4-2.5-2.9-5.7-5.1-7.6-8.5-10.1-19.3,10.3-38.1,29.7-28.7,14.3,6.9,15.4,29.4.9,36.4ZM308.8,64.9c-20.4,3.2-17.8,36.1,6.9,31.8,19.2-3.3,15.1-35.2-6.9-31.8Z"/>
  <path class="st1" d="M355.1,118.1v11s11.1,0,11.1,0v5.5h-11.1s0,11,0,11h-4.6s0-11,0-11c-12-1-12.1,1.3-11.9-4,0-2.1,9.4-1,11.9-1.5v-11s4.6,0,4.6,0Z"/>
  <path class="st3" d="M308.8,64.9c22-3.5,26.1,28.4,6.9,31.8-24.7,4.3-27.4-28.5-6.9-31.8Z"/>
  <circle class="st5" cx="39.3" cy="89" r="3.1"/>
  <circle class="st5" cx="146.2" cy="89" r="3.1"/>
</svg>